{"title":"Elementary S02E09 HDTV x264 AAC E-Subs [GWC].mp4","uid":9233036,"size":132224426,"categoryP":"video","categoryS":"tv_shows","magnet":"?xt=urn:btih:722095a0588bbde6b1066c4124263ea6f10d3055&amp;dn=Elementary+S02E09+HDTV+x264+AAC+E-Subs+%5BGWC%5D.mp4&amp;tr=udp%3A%2F%2Ftracker.openbittorrent.com%3A80&amp;tr=udp%3A%2F%2Fopen.demonii.com%3A1337&amp;tr=udp%3A%2F%2Ftracker.coppersurfer.tk%3A6969&amp;tr=udp%3A%2F%2Fexodus.desync.com%3A6969","seeders":3,"leechers":0,"uploader":"canc232","files":1,"time":1385104331,"description":"Elementary S02E09 HDTV x264 AAC E-Subs [GWC]\n\n\n\nSCREENS :\n &lt;a href=&quot;\nhttp://s20.postimg.org/qhwilzrp9/On_the_Line_10_58_24.jpg&quot; rel=&quot;nofollow&quot; target=&quot;_NEW&quot;&gt;\nhttp://s20.postimg.org/qhwilzrp9/On_the_Line_10_58_24.jpg&lt;/a&gt; &lt;a href=&quot;\nhttp://s20.postimg.org/idoeh95a5/On_the_Line_10_58_42.jpg&quot; rel=&quot;nofollow&quot; target=&quot;_NEW&quot;&gt;\nhttp://s20.postimg.org/idoeh95a5/On_the_Line_10_58_42.jpg&lt;/a&gt; &lt;a href=&quot;\nhttp://s20.postimg.org/5nk645xbx/On_the_Line_10_58_52.jpg&quot; rel=&quot;nofollow&quot; target=&quot;_NEW&quot;&gt;\nhttp://s20.postimg.org/5nk645xbx/On_the_Line_10_58_52.jpg&lt;/a&gt;\n\n\n\nMEDIA INFO :\n\nGeneral \nFormat : MPEG-4 \nFormat profile : Base Media\nFile size : 126 MiB \nDuration : 43mn 25s \nOverall bit rate mode : Variable \nOverall bit rate : 406 Kbps\n\nVideo\nFormat : AVC\nFormat profile : &lt;a class=&quot;__cf_email__&quot; href=&quot;/cdn-cgi/l/email-protection&quot; data-cfemail=&quot;430b2a242b030f706d73&quot;&gt;[email&amp;#160;protected]&lt;/a&gt;&lt;script cf-hash='f9e31' type=&quot;text/javascript&quot;&gt;\n/* &lt;![CDATA[ */!function(){try{var t=&quot;currentScript&quot;in document?document.currentScript:function(){for(var t=document.getElementsByTagName(&quot;script&quot;),e=t.length;e--;)if(t[e].getAttribute(&quot;cf-hash&quot;))return t[e]}();if(t&amp;&amp;t.previousSibling){var e,r,n,i,c=t.previousSibling,a=c.getAttribute(&quot;data-cfemail&quot;);if(a){for(e=&quot;&quot;,r=parseInt(a.substr(0,2),16),n=2;a.length-n;n+=2)i=parseInt(a.substr(n,2),16)^r,e+=String.fromCharCode(i);e=document.createTextNode(e),c.parentNode.replaceChild(e,c)}}}catch(u){}}();/* ]]&gt; */&lt;/script&gt; \nFormat settings, CABAC : Yes \nFormat settings, ReFrames : 4 frames\nDuration : 43mn 24s \nBit rate : 343 Kbps\nWidth : 720 pixels \nHeight : 404 pixels \nDisplay aspect ratio : 16:9 \nFrame rate mode : Constant \nFrame rate : 23.976 fps\nStream size : 106 MiB (84%) \nTitle : Elementary S02E09 HDTV x264 AAC E-Subs [GWC] \nWriting library : x264 core \n\nAudio\nFormat : AAC\nFormat profile : HE-AAC / LC\nDuration : 43mn 25s \nBit rate mode : Variable\nChannel(s) : 2 channels \nSampling rate : 48.0 KHz / 24.0 KHz \nStream size : 18.6 MiB\nLanguage : English\n\nText\nFormat : Timed Text\nDuration : 42mn 59s \nStream size : 36.8 KiB (0%) \nTitle : English Subtitle by elderman \nLanguage : English","torrent":{"xt":"urn:btih:722095a0588bbde6b1066c4124263ea6f10d3055","amp;dn":"Elementary+S02E09+HDTV+x264+AAC+E-Subs+%5BGWC%5D.mp4","amp;tr":["udp%3A%2F%2Ftracker.openbittorrent.com%3A80","udp%3A%2F%2Fopen.demonii.com%3A1337","udp%3A%2F%2Ftracker.coppersurfer.tk%3A6969","udp%3A%2F%2Fexodus.desync.com%3A6969"],"infoHash":"722095a0588bbde6b1066c4124263ea6f10d3055","infoHashBuffer":{"type":"Buffer","data":[114,32,149,160,88,139,189,230,177,6,108,65,36,38,62,166,241,13,48,85]},"announce":[],"urlList":[]}}